{"title":"Solitary-S04E003-A.Pain.in.the.Neck.avi","uid":5402021,"size":392904890,"categoryP":"video","categoryS":"tv_shows","magnet":"?xt=urn:btih:d9624dd554e2c487aea30aeb8e15a6a959d843d4&amp;dn=Solitary-S04E003-A.Pain.in.the.Neck.avi&amp;tr=udp%3A%2F%2Ftracker.openbittorrent.com%3A80&amp;tr=udp%3A%2F%2Fopen.demonii.com%3A1337&amp;tr=udp%3A%2F%2Ftracker.coppersurfer.tk%3A6969&amp;tr=udp%3A%2F%2Fexodus.desync.com%3A6969","seeders":0,"leechers":1,"uploader":"pixiesmiles","files":-1,"time":1267461452,"description":"Enjoy! :o)\n\nFormat                           : AVI\nFormat/Info                      : Audio Video Interleave\nFile size                        : 375 MiB\nDuration                         : 44mn 59s\nOverall bit rate                 : 1 164 Kbps\nWriting application              : Lavf52.22.1\n\nVideo\nID                               : 0\nFormat                           : MPEG-4 Visual\nFormat profile                   : Simple@L1\nFormat settings, Matrix          : Default (H.263)\nCodec ID                         : XVID\nCodec ID/Hint                    : XviD\nDuration                         : 44mn 59s\nBit rate                         : 1 024 Kbps\nWidth                            : 704 pixels\nHeight                           : 396 pixels\nDisplay aspect ratio             : 16:9\nFrame rate                       : 23.976 fps\nResolution                       : 8 bits\nColorimetry                      : 4:2:0\nScan type                        : Progressive\nBits/(Pixel*Frame)               : 0.153\nStream size                      : 330 MiB (88%)\nWriting library                  : Lavc52.0.0\n\nAudio\nID                               : 1\nFormat                           : MPEG Audio\nFormat version                   : Version 1\nFormat profile                   : Layer 3\nCodec ID                         : 55\nCodec ID/Hint                    : MP3\nDuration                         : 44mn 59s\nBit rate mode                    : Constant\nBit rate                         : 128 Kbps\nChannel(s)                       : 2 channels\nSampling rate                    : 44.1 KHz\nStream size                      : 41.2 MiB (11%)\nAlignment                        : Aligned on interleaves\nInterleave, duration             : 26 ms (0.63 video frame)\nWriting library                  : LAME3.98\n\n","torrent":{"xt":"urn:btih:d9624dd554e2c487aea30aeb8e15a6a959d843d4","amp;dn":"Solitary-S04E003-A.Pain.in.the.Neck.avi","amp;tr":["udp%3A%2F%2Ftracker.openbittorrent.com%3A80","udp%3A%2F%2Fopen.demonii.com%3A1337","udp%3A%2F%2Ftracker.coppersurfer.tk%3A6969","udp%3A%2F%2Fexodus.desync.com%3A6969"],"infoHash":"d9624dd554e2c487aea30aeb8e15a6a959d843d4","infoHashBuffer":{"type":"Buffer","data":[217,98,77,213,84,226,196,135,174,163,10,235,142,21,166,169,89,216,67,212]},"announce":[],"urlList":[]}}